<?xml version="1.0" encoding="utf-8"?>
<!-- Generator: Adobe Illustrator 21.0.0, SVG Export Plug-In . SVG Version: 6.00 Build 0)  -->
<svg version="1.1" id="Layer_1" xmlns="http://www.w3.org/2000/svg" xmlns:xlink="http://www.w3.org/1999/xlink" x="0px" y="0px"
	 width="237px" height="62px" viewBox="0 0 237 62" style="enable-background:new 0 0 237 62;" xml:space="preserve">
<style type="text/css">
	.st0{fill:#FFFFFF;}
	.st1{fill:#CFDE00;}
</style>
<title>xko</title>
<g>
	<path class="st0" d="M98.4,19.1v21h-5v-2c-1.6,1.6-3.7,2.7-6.2,2.7c-6.2,0-10.5-4.8-10.5-11.2c0-6.3,4.2-11.2,10.5-11.2
		c2.5,0,4.6,1,6.2,2.6v-1.9H98.4z M93.3,29.6c0-3.7-2.6-6.3-5.8-6.3c-3.2,0-5.7,2.6-5.7,6.3c0,3.7,2.5,6.4,5.7,6.4
		C90.7,36,93.3,33.3,93.3,29.6"/>
	<path class="st0" d="M125.1,29.6c0,6.3-4.2,11.2-10.5,11.2c-2.5,0-4.6-1.1-6.2-2.7v2h-5V8.6h5V21c1.6-1.6,3.7-2.6,6.2-2.6
		C120.9,18.4,125.1,23.3,125.1,29.6 M120,29.6c0-3.7-2.5-6.3-5.7-6.3c-3.2,0-5.8,2.6-5.8,6.3c0,3.7,2.6,6.4,5.8,6.4
		C117.5,36,120,33.3,120,29.6"/>
	<rect x="128.9" y="8.6" class="st0" width="5" height="31.5"/>
	<path class="st0" d="M148.9,36.2c2.8,0,4.5-1.3,5.7-3.4l4.4,1.9c-1.8,3.7-5.6,6.2-10.1,6.2c-6.2,0-11.2-4.9-11.2-11.2
		c0-6.2,5-11.2,11.2-11.2c6.3,0,11.2,5,11.2,11.2c0,0.6,0,1.2-0.1,1.8h-16.9C143.7,34.3,146,36.2,148.9,36.2 M143.1,27.5h11.6
		c-0.8-2.7-3.1-4.5-5.8-4.5C146.1,23,143.9,24.8,143.1,27.5"/>
	<path class="st0" d="M183.5,28.4v11.7h-5V28.4c0-3.7-2.5-5.6-4.9-5.6c-2.5,0-5,1.9-5,5.6v11.7h-5v-21h5v1.8
		c1.8-1.7,4.2-2.5,6.4-2.5C179.2,18.4,183.5,21.8,183.5,28.4"/>
	<path class="st0" d="M198,36.2c2.8,0,4.5-1.3,5.7-3.4l4.4,1.9c-1.8,3.7-5.6,6.2-10.1,6.2c-6.2,0-11.2-4.9-11.2-11.2
		c0-6.2,5-11.2,11.2-11.2c6.3,0,11.2,5,11.2,11.2c0,0.6,0,1.2-0.1,1.8h-16.9C192.8,34.3,195.2,36.2,198,36.2 M192.2,27.5h11.6
		c-0.8-2.7-3.1-4.5-5.8-4.5C195.2,23,193,24.8,192.2,27.5"/>
	<path class="st0" d="M211.8,29.6c0-6.2,5-11.2,11.2-11.2c6.3,0,11.2,5,11.2,11.2c0,6.3-5,11.2-11.2,11.2
		C216.7,40.8,211.8,35.8,211.8,29.6 M229,29.6c0-3.9-2.7-6.6-6.1-6.6c-3.4,0-6.1,2.6-6.1,6.6c0,3.9,2.6,6.6,6.1,6.6
		C226.3,36.2,229,33.5,229,29.6"/>
	<polygon class="st0" points="97.2,45.7 94.5,45.7 94.5,53.1 94,53.1 94,45.7 91.3,45.7 91.3,45.3 97.2,45.3 	"/>
	<path class="st0" d="M103.2,50.1v3h-0.4v-3c0-1.5-0.9-2.3-1.9-2.3c-0.9,0-1.8,0.6-1.9,2v3.3h-0.4v-8.3h0.4v4c0.4-0.8,1.2-1.3,2-1.3
		C102.1,47.5,103.2,48.3,103.2,50.1"/>
	<path class="st0" d="M110.5,50.4c0,0,0,0.2,0,0.3h-5.3c0.1,1.3,1.2,2.2,2.4,2.2c1,0,1.8-0.5,2.2-1.3l0.4,0.2
		c-0.5,1-1.5,1.6-2.6,1.6c-1.6,0-2.9-1.3-2.9-2.9c0-1.6,1.3-2.9,2.9-2.9C109.2,47.5,110.5,48.7,110.5,50.4 M110,50.3
		c0-1.5-1.2-2.4-2.5-2.4s-2.4,1-2.4,2.4H110z"/>
	<path class="st0" d="M115.2,45.6c0-0.2,0.1-0.3,0.3-0.3c0.2,0,0.3,0.1,0.3,0.3c0,0.2-0.1,0.3-0.3,0.3
		C115.4,45.9,115.2,45.8,115.2,45.6 M115.8,53.1h-0.4v-5.5h0.4V53.1z"/>
	<path class="st0" d="M122.7,50.1v3h-0.4v-3c0-1.5-0.9-2.3-1.9-2.3c-0.9,0-2,0.7-2,2.3v3H118v-5.5h0.4v1.1c0.4-0.9,1.2-1.3,2.1-1.3
		C121.6,47.5,122.7,48.3,122.7,50.1"/>
	<path class="st0" d="M129.5,50.1v3H129v-3c0-1.5-0.9-2.3-1.9-2.3c-0.9,0-2,0.7-2,2.3v3h-0.4v-5.5h0.4v1.1c0.4-0.9,1.2-1.3,2.1-1.3
		C128.4,47.5,129.5,48.3,129.5,50.1"/>
	<path class="st0" d="M131,50.3c0-1.6,1.3-2.9,2.9-2.9c1.6,0,2.9,1.3,2.9,2.9c0,1.6-1.3,2.9-2.9,2.9C132.3,53.2,131,52,131,50.3
		 M136.3,50.3c0-1.5-1.2-2.5-2.5-2.5c-1.3,0-2.4,1-2.4,2.5c0,1.5,1.1,2.5,2.4,2.5C135.1,52.8,136.3,51.8,136.3,50.3"/>
	<polygon class="st0" points="142.3,47.6 140.1,53.1 139.6,53.1 137.4,47.6 137.9,47.6 139.9,52.5 141.8,47.6 	"/>
	<path class="st0" d="M148.4,47.6v5.5h-0.4v-1.3c-0.4,0.9-1.3,1.5-2.3,1.5c-1.5,0-2.7-1.2-2.7-2.9c0-1.6,1.2-2.9,2.7-2.9
		c1,0,1.9,0.6,2.3,1.5v-1.3H148.4z M147.9,50.6v-0.5c-0.1-1.3-1.1-2.2-2.3-2.2c-1.2,0-2.3,1-2.3,2.5c0,1.4,1,2.5,2.3,2.5
		C146.8,52.8,147.8,51.9,147.9,50.6"/>
	<path class="st0" d="M151.8,48v2.7c0,1.3,0.3,1.9,1.9,1.9v0.4c-1.9,0-2.3-0.8-2.3-2.4V48h-1.4v-0.4h1.4v-0.9h0.4v0.9h1.9V48H151.8z
		"/>
	<path class="st0" d="M155.3,45.6c0-0.2,0.1-0.3,0.3-0.3c0.2,0,0.3,0.1,0.3,0.3c0,0.2-0.1,0.3-0.3,0.3
		C155.4,45.9,155.3,45.8,155.3,45.6 M155.8,53.1h-0.4v-5.5h0.4V53.1z"/>
	<path class="st0" d="M157.4,50.3c0-1.6,1.3-2.9,2.9-2.9c1.6,0,2.9,1.3,2.9,2.9c0,1.6-1.3,2.9-2.9,2.9
		C158.7,53.2,157.4,52,157.4,50.3 M162.8,50.3c0-1.5-1.2-2.5-2.5-2.5c-1.3,0-2.4,1-2.4,2.5c0,1.5,1.1,2.5,2.4,2.5
		C161.6,52.8,162.8,51.8,162.8,50.3"/>
	<path class="st0" d="M169.4,50.1v3h-0.4v-3c0-1.5-0.9-2.3-1.9-2.3c-0.9,0-2,0.7-2,2.3v3h-0.4v-5.5h0.4v1.1c0.4-0.9,1.2-1.3,2.1-1.3
		C168.3,47.5,169.4,48.3,169.4,50.1"/>
	<path class="st0" d="M179.9,50.4c0,0,0,0.2,0,0.3h-5.3c0.1,1.3,1.2,2.2,2.4,2.2c1,0,1.8-0.5,2.2-1.3l0.4,0.2
		c-0.5,1-1.5,1.6-2.6,1.6c-1.6,0-2.9-1.3-2.9-2.9c0-1.6,1.3-2.9,2.9-2.9C178.6,47.5,179.9,48.7,179.9,50.4 M179.5,50.3
		c0-1.5-1.2-2.4-2.5-2.4c-1.3,0-2.4,1-2.4,2.4H179.5z"/>
	<path class="st0" d="M186.1,50.1v3h-0.4v-3c0-1.5-0.9-2.3-1.9-2.3c-0.9,0-2,0.7-2,2.3v3h-0.4v-5.5h0.4v1.1c0.4-0.9,1.2-1.3,2.1-1.3
		C185,47.5,186.1,48.3,186.1,50.1"/>
	<path class="st0" d="M193.1,47.6v5.5h-0.4v-1.3c-0.4,0.9-1.3,1.5-2.3,1.5c-1.5,0-2.7-1.2-2.7-2.9c0-1.6,1.2-2.9,2.7-2.9
		c1,0,1.9,0.6,2.3,1.5v-1.3H193.1z M192.6,50.6v-0.5c-0.1-1.3-1.1-2.2-2.3-2.2c-1.2,0-2.3,1-2.3,2.5c0,1.4,1,2.5,2.3,2.5
		C191.5,52.8,192.5,51.9,192.6,50.6"/>
	<path class="st0" d="M200.7,50.3c0,1.7-1.2,2.9-2.7,2.9c-1,0-1.9-0.6-2.3-1.5v1.3h-0.4v-8.3h0.4v4.2c0.4-0.9,1.3-1.5,2.3-1.5
		C199.5,47.5,200.7,48.7,200.7,50.3 M200.2,50.3c0-1.4-1-2.5-2.3-2.5c-1.2,0-2.2,0.9-2.3,2.2v0.5c0.1,1.3,1.1,2.2,2.3,2.2
		C199.2,52.8,200.2,51.8,200.2,50.3"/>
	<rect x="202.2" y="44.8" class="st0" width="0.4" height="8.3"/>
	<path class="st0" d="M210,50.4c0,0,0,0.2,0,0.3h-5.3c0.1,1.3,1.2,2.2,2.4,2.2c1,0,1.8-0.5,2.2-1.3l0.4,0.2c-0.5,1-1.5,1.6-2.6,1.6
		c-1.6,0-2.9-1.3-2.9-2.9c0-1.6,1.3-2.9,2.9-2.9C208.7,47.5,210,48.7,210,50.4 M209.5,50.3c0-1.5-1.2-2.4-2.5-2.4
		c-1.3,0-2.4,1-2.4,2.4H209.5z"/>
	<path class="st0" d="M214.3,47.6v0.5c-1.4,0-2.4,1-2.4,1.8v3.2h-0.4v-5.5h0.4v1.5C212.4,48,213.6,47.6,214.3,47.6"/>
	<path class="st0" d="M219.5,49.3H219c0-1-0.8-1.5-1.7-1.5c-0.9,0-1.6,0.6-1.6,1.2c0,1.8,3.8,0.4,3.8,2.6c0,0.9-0.8,1.6-2.1,1.6
		c-1.4,0-2.1-0.8-2.2-1.8h0.4c0.1,0.8,0.6,1.5,1.7,1.5c0.9,0,1.7-0.5,1.7-1.2c0-1.8-3.7-0.4-3.7-2.6c0-0.8,0.8-1.6,2-1.6
		C218.6,47.5,219.5,48.3,219.5,49.3"/>
	<path class="st1" d="M61.8,2.5c-5.9,0-10.6,4.8-10.6,10.6c0,0.5,0,1,0.1,1.4l-17.2,5c-2.4-6-8.2-10.2-15-10.2
		c-8.9,0-16.2,7.3-16.2,16.2c0,8.9,7.3,16.2,16.2,16.2c4.7,0,9-2.1,12-5.3l12.6,9.4c-0.7,1.3-1,2.7-1,4.3c0,5.2,4.2,9.4,9.4,9.4
		c5.2,0,9.4-4.2,9.4-9.4c0-3.8-2.3-7.1-5.5-8.6l4.7-17.8c0.4,0,0.8,0.1,1.2,0.1c5.9,0,10.6-4.8,10.6-10.6
		C72.4,7.3,67.6,2.5,61.8,2.5 M19,38.6c-7.2,0-13-5.8-13-13c0-7.2,5.8-13,13-13s13,5.8,13,13C32,32.7,26.2,38.6,19,38.6 M58.3,50.1
		c0,3.5-2.8,6.3-6.3,6.3c-3.5,0-6.3-2.8-6.3-6.3c0-3.5,2.8-6.3,6.3-6.3C55.5,43.8,58.3,46.6,58.3,50.1 M52.8,40.7
		c-0.3,0-0.6,0-0.9,0c-2.5,0-4.8,1-6.5,2.6l-12.6-9.4c1.5-2.4,2.3-5.3,2.3-8.3c0-1-0.1-2-0.3-3l17.2-5c1.1,2.4,3,4.3,5.4,5.3
		L52.8,40.7z M61.8,20.9c-4.3,0-7.7-3.5-7.7-7.7c0-4.3,3.5-7.7,7.7-7.7c4.3,0,7.7,3.5,7.7,7.7C69.5,17.4,66,20.9,61.8,20.9"/>
</g>
</svg>
